<?xml version="1.0" encoding="UTF-8"?>
<svg width="66px" height="66px" viewBox="0 0 66 66" version="1.1" xmlns="http://www.w3.org/2000/svg" xmlns:xlink="http://www.w3.org/1999/xlink">
    <title>entrega-domicilio</title>
    <defs>
        <filter id="filter-1">
            <feColorMatrix in="SourceGraphic" type="matrix" values="0 0 0 0 0.267369 0 0 0 0 0.308766 0 0 0 0 0.252124 0 0 0 1.000000 0"></feColorMatrix>
        </filter>
        <filter id="filter-2">
            <feColorMatrix in="SourceGraphic" type="matrix" values="0 0 0 0 0.341056 0 0 0 0 0.192952 0 0 0 0 0.150390 0 0 0 1.000000 0"></feColorMatrix>
        </filter>
        <polygon id="path-3" points="0 0 44.1328771 0 44.1328771 32 0 32"></polygon>
    </defs>
    <g id="UI" stroke="none" stroke-width="1" fill="none" fill-rule="evenodd">
        <g id="Desktop-HD" transform="translate(-215.000000, -7392.000000)">
            <g id="entrega-domicilio" transform="translate(154.000000, 7392.000000)" filter="url(#filter-1)">
                <g transform="translate(61.000000, 0.000000)">
                    <circle id="Oval-Copy-5" stroke="#3E5264" stroke-width="2" cx="33" cy="33" r="32"></circle>
                    <g id="Group-8" transform="translate(10.827033, 16.910000)" filter="url(#filter-2)">
                        <g transform="translate(-0.000000, -0.000000)">
                            <path d="M8.57956351,7.62039538 L8.57956351,4.1866973 C8.57956351,3.79320235 8.26113052,3.47515628 7.86763557,3.47515628 C7.47414062,3.47515628 7.15551418,3.79320235 7.15551418,4.1866973 L7.15551418,7.38766459 L5.54013421,9.60470105 C5.3079838,9.9223602 5.37859622,10.3673152 5.69625537,10.5986917 C5.82239042,10.6915519 5.9690321,10.7358539 6.11451303,10.7358539 C6.33408863,10.7358539 6.55114927,10.6344816 6.6900526,10.4429575 L8.44259476,8.03903996 C8.5313923,7.91774137 8.57956351,7.77109969 8.57956351,7.62039538" id="Fill-1" fill="#FFFFFF"></path>
                            <g id="Group-5">
                                <mask id="mask-4" fill="white">
                                    <use xlink:href="#path-3"></use>
                                </mask>
                                <g id="Clip-4"></g>
                                <path d="M37.9194486,27.7981936 C36.2050178,25.6378405 33.1286379,21.3366737 33.1286379,19.29878 C33.1286379,16.6569083 35.2779638,14.5083562 37.9194486,14.5083562 C40.56074,14.5083562 42.7098724,16.6569083 42.7098724,19.29878 C42.7098724,21.3353195 39.6329122,25.6368732 37.9194486,27.7981936 L37.9194486,27.7981936 Z M24.9139955,30.1601306 L24.9139955,16.0235246 C24.9364367,15.9939254 24.9501723,15.9575552 24.9685509,15.9238934 L37.7650686,10.1073647 L37.7650686,13.0926256 C34.4099148,13.1752325 31.7045886,15.9242803 31.7045886,19.29878 C31.7045886,20.834455 32.8752071,23.0530391 34.1566773,25.0259307 L24.9139955,30.1601306 Z M8.57950547,15.1730802 C9.88535155,15.0082534 11.0861496,14.5112581 12.1010338,13.7699244 L12.1010338,22.6547077 C12.1010338,22.9292256 12.2587026,23.1797545 12.5069101,23.296797 C12.7537634,23.4151938 13.0478206,23.3803712 13.2612055,23.2074191 L15.6378454,21.2803772 L19.4006166,25.4838474 C19.5381658,25.6374536 19.7322048,25.7210277 19.9308869,25.7210277 C20.0163956,25.7210277 20.1028717,25.705938 20.1854785,25.6744042 C20.4607702,25.5685823 20.6428148,25.3037374 20.6428148,25.0089064 L20.6428148,15.1059501 L23.4899462,16.0548649 L23.4899462,30.1988223 L8.57911855,24.5181017 L8.57911855,15.1730802 L8.57950547,15.1730802 Z M1.42346896,7.62045342 C1.42346896,4.20339278 4.20347017,1.42339157 7.61995043,1.42339157 C11.0368176,1.42339157 13.8164319,4.20339278 13.8164319,7.62045342 C13.8164319,11.0369337 11.0368176,13.8167414 7.61995043,13.8167414 C4.20347017,13.8167414 1.42346896,11.0369337 1.42346896,7.62045342 L1.42346896,7.62045342 Z M13.5146364,12.7296971 L19.2193459,14.6313959 L19.2193459,23.14706 L16.2464664,19.8253745 C15.9918747,19.5427314 15.5608488,19.5084892 15.2675654,19.7477976 L13.5246962,21.1610132 L13.5246962,12.7809637 C13.5246962,12.7625851 13.5157971,12.7476888 13.5146364,12.7296971 L13.5146364,12.7296971 Z M24.0960522,14.7567571 L14.1934829,11.4559652 C14.7881748,10.4408875 15.1518772,9.27858775 15.2195877,8.0358092 L16.2712291,7.63167402 L29.6661145,12.2249634 L24.0960522,14.7567571 Z M24.2206396,4.57734841 L36.5925156,9.07661689 L31.5519497,11.3675546 C31.5498217,11.3667807 31.5486609,11.3648461 31.5463394,11.3644592 L18.3416238,6.83617194 L24.2206396,4.57734841 Z M39.188731,13.2160522 L39.188731,9.00368297 C39.188731,8.99536425 39.184088,8.98820628 39.184088,8.98008101 C39.184088,8.97833988 39.1846684,8.97698567 39.1846684,8.975438 C39.1815731,8.89844145 39.1645487,8.82512061 39.1390122,8.75547549 C39.1262439,8.72181368 39.1070915,8.69318179 39.0896802,8.66184148 C39.0668521,8.62082824 39.0418959,8.58194305 39.0117163,8.5461532 C38.9881144,8.51887552 38.9648993,8.49488665 38.938202,8.47128469 C38.8998972,8.43781634 38.8571429,8.41092558 38.8118735,8.38616287 C38.7849828,8.37146001 38.7613808,8.35385527 38.732362,8.34302158 C38.7267517,8.34089354 38.7226891,8.33683091 38.7168853,8.33489632 L24.457433,3.14884953 C24.2957016,3.09061846 24.1184934,3.09255305 23.9586966,3.15291216 L15.1543921,6.53573061 C14.6245088,2.8474409 11.4527538,-7.73834714e-05 7.61995043,-7.73834714e-05 C3.41860831,-7.73834714e-05 0,3.41891784 0,7.62045342 C0,11.6649006 3.17078774,14.9747851 7.15545614,15.2166084 L7.15545614,25.0089064 C7.15545614,25.3045112 7.33769421,25.5693561 7.61375975,25.6744042 L23.734478,31.8159434 C23.8602261,31.9271822 24.0211837,32.0001161 24.2020676,32.0001161 C24.2268303,32.0001161 24.2481108,31.9885086 24.2720996,31.9858001 C24.2980231,31.9885086 24.3233662,32.0001161 24.3494831,32.0001161 C24.469234,32.0001161 24.5880177,31.97013 24.6948068,31.9103512 L34.9550813,26.2104782 C36.082365,27.8188937 37.1280092,29.0910779 37.3727344,29.383394 C37.508349,29.5455124 37.7079983,29.6397267 37.9194486,29.6397267 C38.1303186,29.6397267 38.3307418,29.5458993 38.4655825,29.383394 C39.046152,28.6892643 44.1329545,22.5022623 44.1329545,19.2981996 C44.1329545,16.3075219 42.0083913,13.8037797 39.188731,13.2160522 L39.188731,13.2160522 Z" id="Fill-3" fill="#FFFFFF" mask="url(#mask-4)"></path>
                            </g>
                            <path d="M37.9194486,20.4990944 C37.2576265,20.4990944 36.7190375,19.960312 36.7190375,19.2988767 C36.7190375,18.6368611 37.2576265,18.0980787 37.9194486,18.0980787 C38.5812708,18.0980787 39.1198597,18.6368611 39.1198597,19.2988767 C39.1198597,19.960312 38.5812708,20.4990944 37.9194486,20.4990944 M37.9194486,16.6744163 C36.4723777,16.6744163 35.2951817,17.8512254 35.2951817,19.2988767 C35.2951817,20.7459476 36.4723777,21.9225633 37.9194486,21.9225633 C39.3665196,21.9225633 40.5437156,20.7459476 40.5437156,19.2988767 C40.5437156,17.8512254 39.3665196,16.6744163 37.9194486,16.6744163" id="Fill-6" fill="#FFFFFF"></path>
                        </g>
                    </g>
                </g>
            </g>
        </g>
    </g>
</svg>