<?xml version="1.0" encoding="UTF-8"?>
<svg width="136px" height="28px" viewBox="0 0 136 28" version="1.1" xmlns="http://www.w3.org/2000/svg" xmlns:xlink="http://www.w3.org/1999/xlink">
    <title>tarjetas</title>
    <g id="UI-DESKTOP" stroke="none" stroke-width="1" fill="none" fill-rule="evenodd">
        <g id="Desktiop-HOME" transform="translate(-73.000000, -7759.000000)" fill="#FFFFFF" fill-rule="nonzero">
            <g id="FOOTER" transform="translate(73.000000, 7695.000000)">
                <g id="tarjetas" transform="translate(0.000000, 64.000000)">
                    <g id="icons8-mastercard" transform="translate(54.444444, 0.000000)">
                        <path d="M3.45555556,0 C1.31055556,0 -0.444444444,1.75 -0.444444444,3.88888889 L-0.444444444,24.1111111 C-0.444444444,26.25 1.31055556,28 3.45555556,28 L34.6555556,28 C36.8005556,28 38.5555556,26.25 38.5555556,24.1111111 L38.5555556,3.88888889 C38.5555556,1.75 36.8005556,0 34.6555556,0 L3.45555556,0 Z M3.45555556,1.55555556 L34.6555556,1.55555556 C35.9565714,1.55555556 36.9955556,2.59157967 36.9955556,3.88888889 L36.9955556,24.1111111 C36.9955556,25.4084203 35.9565714,26.4444444 34.6555556,26.4444444 L3.45555556,26.4444444 C2.15453974,26.4444444 1.11555556,25.4084203 1.11555556,24.1111111 L1.11555556,3.88888889 C1.11555556,2.59157967 2.15453974,1.55555556 3.45555556,1.55555556 Z M12.8155556,4.66666667 C7.6541497,4.66666667 3.45555556,8.853299 3.45555556,14 C3.45555556,19.1467018 7.6541497,23.3333333 12.8155556,23.3333333 C15.2164931,23.3333333 17.3980556,22.4127602 19.0555556,20.9270833 C20.7130556,22.4127602 22.8976647,23.3333333 25.2955556,23.3333333 C30.4569622,23.3333333 34.6555556,19.1467018 34.6555556,14 C34.6555556,8.853299 30.4569622,4.66666667 25.2955556,4.66666667 C22.8976647,4.66666667 20.7130556,5.58723978 19.0555556,7.07291667 C17.3980556,5.58723978 15.2164931,4.66666667 12.8155556,4.66666667 Z M25.2955556,6.22222222 C29.6129772,6.22222222 33.0955556,9.69487867 33.0955556,14 C33.0955556,18.3051213 29.6129772,21.7777778 25.2955556,21.7777778 C23.3059464,21.7777778 21.4808681,21.0516491 20.1036806,19.8333333 C21.3925089,18.2322047 22.1755556,16.2087676 22.1755556,14 C22.1755556,11.7912324 21.3925089,9.76779533 20.1036806,8.16666667 C21.4808681,6.94835089 23.3059464,6.22222222 25.2955556,6.22222222 Z" id="Shape"></path>
                    </g>
                    <g id="icons8-paypal" transform="translate(107.888889, 0.000000)">
                        <path d="M4.81067813,0 L4.62059799,0.885498075 C3.2905859,7.02892969 0.968091704,17.7444776 0.401693329,20.3884279 L0.111111111,21.7485349 L7.03701871,21.7485349 L6.20022932,25.6376948 L5.90746219,27 L12.8748813,27 L14.3758589,20.0456539 L14.3802283,20.014893 C14.4036189,19.8651892 14.6078622,19.4765625 15.0924828,19.4765625 L18.2080486,19.4765625 C22.6014729,19.4765625 26.034398,16.8185239 26.9211468,12.6496586 C27.3470326,10.6445576 27.0692225,8.76922087 25.9620068,7.3828125 L25.9598221,7.38061526 C25.0814854,6.28135481 23.7836056,5.58301151 22.3635935,5.33935552 L22.3570394,5.33935552 L22.3504842,5.33715817 C22.3504842,5.33715817 21.6306129,5.31298676 21.2886582,5.28881839 L21.2886582,5.26464844 L21.2864724,5.24487308 C21.1823881,3.5037594 20.352119,2.1123 19.2327338,1.24804688 C18.1133485,0.38379375 16.7474715,0 15.4442401,0 L4.81067813,0 Z M6.61316196,2.25 L15.4442401,2.25 C16.2966134,2.25 17.2082026,2.52172969 17.8694005,3.03222656 C18.5027769,3.52124314 18.9358062,4.1972058 19.0317301,5.2514649 L11.2013032,5.2514649 C10.8478143,5.2514649 10.5662344,5.49414844 10.4890487,5.82714844 L10.486864,5.82714844 L9.29831711,11.2873534 L9.28739255,11.2851562 L7.51986598,19.4985349 L2.88365897,19.4985349 C3.58780574,16.2258176 5.36163435,8.0303625 6.61316196,2.25 Z M21.0898381,7.51025385 C21.658515,7.53156788 21.9923619,7.56044224 21.9943575,7.56079099 C22.9298731,7.72331085 23.7315232,8.18380125 24.2163284,8.79125963 C24.8437022,9.57587512 25.0642596,10.6149004 24.7319486,12.1794435 L24.7341332,12.1794435 C24.0390889,15.4468271 21.7748125,17.2265625 18.2080486,17.2265625 L15.0924828,17.2265625 C13.4964472,17.2265625 12.3672795,18.3977314 12.169182,19.6655276 L11.0702129,24.75 L8.68000983,24.75 L8.85479614,23.937012 L9.8095668,19.4985349 L10.9391226,14.2448726 L12.3789256,14.2448726 C16.6135041,14.2448726 20.1027736,11.9389927 21.0898381,7.51025385 Z" id="Shape"></path>
                    </g>
                    <g id="icons8-visa">
                        <path d="M3.9,0 C1.755,0 0,1.75 0,3.88888889 L0,24.1111111 C0,26.25 1.755,28 3.9,28 L35.1,28 C37.245,28 39,26.25 39,24.1111111 L39,3.88888889 C39,1.75 37.245,0 35.1,0 L3.9,0 Z M3.9,1.55555556 L35.1,1.55555556 C36.4010158,1.55555556 37.44,2.59157967 37.44,3.88888889 L37.44,24.1111111 C37.44,25.4084203 36.4010158,26.4444444 35.1,26.4444444 L3.9,26.4444444 C2.59898418,26.4444444 1.56,25.4084203 1.56,24.1111111 L1.56,3.88888889 C1.56,2.59157967 2.59898418,1.55555556 3.9,1.55555556 Z M23.15625,9.64930556 C20.7370316,9.64930556 19.5,10.8372398 19.5,12.3472222 C19.5,15.0785592 22.66875,14.7109379 22.66875,16.1145833 C22.66875,16.3515629 22.4859375,16.9166667 21.1575,16.9166667 C19.8260158,16.9166667 18.96375,16.40625 18.96375,16.40625 L18.549375,18.2534722 C18.549375,18.2534722 19.4116408,18.7395833 21.06,18.7395833 C22.7083592,18.7395833 24.984375,17.4817712 24.984375,15.6527778 C24.984375,13.453125 21.815625,13.2799481 21.815625,12.2986111 C21.815625,11.7973092 22.205625,11.4236111 23.35125,11.4236111 C24.0946875,11.4236111 24.935625,11.9826389 24.935625,11.9826389 L25.325625,10.0868056 C25.325625,10.0868056 24.2196092,9.64930556 23.15625,9.64930556 Z M12.845625,9.81944444 L10.749375,15.9930556 C10.749375,15.9930556 10.6061717,15.4674481 10.554375,15.1423611 C9.35695332,12.462674 7.41,11.4722222 7.41,11.4722222 L9.2625,18.4722222 L11.7975,18.4722222 L15.3075,9.81944444 L12.845625,9.81944444 Z M16.209375,9.81944444 L14.844375,18.4722222 L17.16,18.4722222 L18.549375,9.81944444 L16.209375,9.81944444 Z M28.71375,9.81944444 L24.935625,18.4722222 L27.226875,18.4722222 L27.69,17.2326389 L30.56625,17.2326389 L30.81,18.4722222 L32.90625,18.4722222 L31.126875,9.81944444 L28.71375,9.81944444 Z M4.875,9.84375 C4.875,9.84375 9.40265664,11.2413194 10.456875,14.6319444 L9.676875,10.6944444 C9.676875,10.6944444 9.34171914,9.84375 8.43375,9.84375 L4.875,9.84375 Z M29.59125,12.3229167 L30.225,15.5798611 L28.32375,15.5798611 L29.59125,12.3229167 Z" id="Shape"></path>
                    </g>
                </g>
            </g>
        </g>
    </g>
</svg>