<?xml version="1.0" encoding="UTF-8"?>
<svg width="66px" height="66px" viewBox="0 0 66 66" version="1.1" xmlns="http://www.w3.org/2000/svg" xmlns:xlink="http://www.w3.org/1999/xlink">
    <title>devolucion</title>
    <defs>
        <filter id="filter-1">
            <feColorMatrix in="SourceGraphic" type="matrix" values="0 0 0 0 0.267369 0 0 0 0 0.308766 0 0 0 0 0.252124 0 0 0 1.000000 0"></feColorMatrix>
        </filter>
        <filter id="filter-2">
            <feColorMatrix in="SourceGraphic" type="matrix" values="0 0 0 0 0.341056 0 0 0 0 0.192952 0 0 0 0 0.150390 0 0 0 1.000000 0"></feColorMatrix>
        </filter>
        <polygon id="path-3" points="0 0 33.6188596 0 33.6188596 25 0 25"></polygon>
    </defs>
    <g id="UI" stroke="none" stroke-width="1" fill="none" fill-rule="evenodd">
        <g id="Desktop-HD" transform="translate(-922.000000, -7392.000000)">
            <g id="devolucion" transform="translate(154.000000, 7392.000000)" filter="url(#filter-1)">
                <g transform="translate(768.000000, 0.000000)">
                    <g id="Group-3" transform="translate(17.000000, 19.013975)" filter="url(#filter-2)">
                        <g transform="translate(0.000000, 0.000000)">
                            <mask id="mask-4" fill="white">
                                <use xlink:href="#path-3"></use>
                            </mask>
                            <g id="Clip-2"></g>
                            <path d="M23.8327419,25.0001428 C29.2288074,25.0001428 33.6190024,20.610305 33.6190024,15.2142394 C33.6190024,9.81781678 29.2291645,5.42797891 23.833099,5.42797891 L8.32512363,5.42797891 L10.9488855,2.80421702 C11.5891148,2.16363062 11.5891148,1.12098164 10.9485285,0.480395246 C10.307585,-0.16054822 9.26457893,-0.159834077 8.62434961,0.480752318 L3.19579054,5.90895431 C2.88549535,6.21924951 2.71445807,6.63202424 2.71445807,7.0708652 C2.71445807,7.50970616 2.88549535,7.92248089 3.19579054,8.23277608 L8.62434961,13.6616922 C8.9346448,13.9719874 9.34777661,14.1430247 9.78661757,14.1430247 C10.2258156,14.1430247 10.6382333,13.9719874 10.9481714,13.6616922 C11.5891148,13.0211058 11.5887578,11.9784568 10.9481714,11.3375134 L8.32476656,8.71375149 L23.8327419,8.71375149 C27.4166692,8.71375149 30.3325157,11.6295979 30.3325157,15.2142394 C30.3325157,18.7981667 27.4166692,21.7140132 23.8327419,21.7140132 L1.64288629,21.7140132 C0.736995719,21.7140132 0,22.4510089 0,23.3568995 C0,24.2631471 0.736995719,25.0001428 1.64288629,25.0001428 L23.8327419,25.0001428 Z" id="Fill-1" fill="#FFFFFF" mask="url(#mask-4)"></path>
                        </g>
                    </g>
                    <circle id="Oval-Copy-8" stroke="#3E5264" stroke-width="2" cx="33" cy="33" r="32"></circle>
                </g>
            </g>
        </g>
    </g>
</svg>