<?xml version="1.0" encoding="UTF-8"?>
<svg width="66px" height="66px" viewBox="0 0 66 66" version="1.1" xmlns="http://www.w3.org/2000/svg" xmlns:xlink="http://www.w3.org/1999/xlink">
    <title>envio-gratis</title>
    <defs>
        <filter id="filter-1">
            <feColorMatrix in="SourceGraphic" type="matrix" values="0 0 0 0 0.267369 0 0 0 0 0.308766 0 0 0 0 0.252124 0 0 0 1.000000 0"></feColorMatrix>
        </filter>
    </defs>
    <g id="UI" stroke="none" stroke-width="1" fill="none" fill-rule="evenodd">
        <g id="Desktop-HD" transform="translate(-451.000000, -7392.000000)">
            <g id="envio-gratis" transform="translate(154.000000, 7392.000000)" filter="url(#filter-1)">
                <g transform="translate(297.000000, 0.000000)">
                    <circle id="Oval-Copy-6" stroke="#3E5264" stroke-width="2" cx="33" cy="33" r="32"></circle>
                    <g id="envios-copy" transform="translate(12.000000, 20.494800)" fill="#3E5264">
                        <path d="M11.6072124,16.071475 L0.892895796,16.071475 C0.400017317,16.071475 1.84564545e-14,15.6714576 1.84564545e-14,15.1785792 C1.84564545e-14,14.6859171 0.400017317,14.2856834 0.892895796,14.2856834 L11.6072124,14.2856834 C12.1000909,14.2856834 12.5001082,14.6859171 12.5001082,15.1785792 C12.5001082,15.6714576 12.1000909,16.071475 11.6072124,16.071475 L11.6072124,16.071475 Z M1.78557513,9.82142084 C1.78557513,9.32854236 2.18580891,8.92852504 2.67847093,8.92852504 L11.6072124,8.92852504 C12.1000909,8.92852504 12.5001082,9.32854236 12.5001082,9.82142084 C12.5001082,10.3142993 12.1000909,10.7143166 11.6072124,10.7143166 L2.67847093,10.7143166 C2.18580891,10.7143166 1.78557513,10.3142993 1.78557513,9.82142084 L1.78557513,9.82142084 Z M3.57136673,4.46426252 C3.57136673,3.97138404 3.97138404,3.57136673 4.46426252,3.57136673 L11.6072124,3.57136673 C12.1000909,3.57136673 12.5001082,3.97138404 12.5001082,4.46426252 C12.5001082,4.957141 12.1000909,5.35715832 11.6072124,5.35715832 L4.46426252,5.35715832 C3.97138404,5.35715832 3.57136673,4.957141 3.57136673,4.46426252 L3.57136673,4.46426252 Z M39.8839777,19.6428417 L39.1958526,19.6428417 C38.7808996,17.6072557 36.9767089,16.071475 34.8216373,16.071475 C32.6663492,16.071475 30.8621585,17.6072557 30.4472055,19.6428417 L26.1190961,19.6428417 L28.9599117,7.14273345 L34.8216373,7.14273345 C38.2678904,7.14273345 41.071475,9.94653448 41.087493,13.2284947 L39.8839777,19.6428417 Z M34.8216373,23.2144249 C33.3447335,23.2144249 32.1429499,22.0124248 32.1429499,20.5357375 C32.1429499,19.0590502 33.3447335,17.8570501 34.8216373,17.8570501 C36.2983246,17.8570501 37.5001082,19.0590502 37.5001082,20.5357375 C37.5001082,22.0124248 36.2983246,23.2144249 34.8216373,23.2144249 L34.8216373,23.2144249 Z M15.1785792,23.2144249 C13.7018919,23.2144249 12.5001082,22.0124248 12.5001082,20.5357375 C12.5001082,19.0590502 13.7018919,17.8570501 15.1785792,17.8570501 C16.6552665,17.8570501 17.8572665,19.0590502 17.8572665,20.5357375 C17.8572665,22.0124248 16.6552665,23.2144249 15.1785792,23.2144249 L15.1785792,23.2144249 Z M34.8216373,5.35715832 L29.3657734,5.35715832 L30.3357288,1.08922464 C30.396554,0.824927486 30.3322655,0.546343998 30.1625611,0.335728819 C29.9928568,0.123165505 29.7357028,-1.2304303e-14 29.464479,-1.2304303e-14 L8.03562925,-1.2304303e-14 C7.54296723,-1.2304303e-14 7.14273345,0.400017317 7.14273345,0.892895796 C7.14273345,1.38577428 7.54296723,1.78557513 8.03562925,1.78557513 L28.3447335,1.78557513 L27.3035629,6.36845751 L24.2869821,19.6428417 L19.553011,19.6428417 C19.1380579,17.6072557 17.3338673,16.071475 15.1785792,16.071475 C13.0232911,16.071475 11.2191004,17.6072557 10.8043638,19.6428417 L8.03562925,19.6428417 C7.54296723,19.6428417 7.14273345,20.042859 7.14273345,20.5357375 C7.14273345,21.028616 7.54296723,21.4286333 8.03562925,21.4286333 L10.8043638,21.4286333 C11.2191004,23.4642192 13.0232911,25 15.1785792,25 C17.3338673,25 19.1380579,23.4642192 19.553011,21.4286333 L25,21.4286333 L30.4472055,21.4286333 C30.8621585,23.4642192 32.6663492,25 34.8216373,25 C36.9767089,25 38.7808996,23.4642192 39.1958526,21.4286333 L40.6251353,21.4286333 C41.0554569,21.4286333 41.4232218,21.1232088 41.5017966,20.7000303 L42.8572665,13.3927876 C42.8572665,8.9625092 39.2519157,5.35715832 34.8216373,5.35715832 L34.8216373,5.35715832 Z" id="Fill-1"></path>
                    </g>
                </g>
            </g>
        </g>
    </g>
</svg>