<?xml version="1.0" encoding="UTF-8"?>
<svg xmlns="http://www.w3.org/2000/svg" xmlns:xlink="http://www.w3.org/1999/xlink" viewBox="0 0 48 48" width="48px" height="48px">
<g id="surface57816990">
<path style=" stroke:none;fill-rule:nonzero;fill:rgb(20.392157%,28.627452%,36.862746%);fill-opacity:1;" d="M 24 4 C 12.976562 4 4 12.976562 4 24 C 4 35.023438 12.976562 44 24 44 C 35.023438 44 44 35.023438 44 24 C 44 12.976562 35.023438 4 24 4 Z M 24 8 C 32.859375 8 40 15.140625 40 24 C 40 32.027344 34.128906 38.625 26.4375 39.796875 L 26.4375 28.769531 L 31.09375 28.769531 L 31.824219 24.039062 L 26.4375 24.039062 L 26.4375 21.453125 C 26.4375 19.488281 27.078125 17.742188 28.917969 17.742188 L 31.871094 17.742188 L 31.871094 13.613281 C 31.351562 13.542969 30.253906 13.390625 28.179688 13.390625 C 23.847656 13.390625 21.308594 15.679688 21.308594 20.890625 L 21.308594 24.039062 L 16.855469 24.039062 L 16.855469 28.769531 L 21.308594 28.769531 L 21.308594 39.757812 C 13.742188 38.480469 8 31.941406 8 24 C 8 15.140625 15.140625 8 24 8 Z M 24 8 "/>
</g>
</svg>
